<svg width="800" height="500" xmlns="http://www.w3.org/2000/svg">
  <defs>
    <linearGradient id="bg2" x1="0%" y1="0%" x2="100%" y2="100%">
      <stop offset="0%" style="stop-color:#38b2ac;stop-opacity:1" />
      <stop offset="100%" style="stop-color:#4fd1c7;stop-opacity:1" />
    </linearGradient>
  </defs>
  <rect width="800" height="500" fill="url(#bg2)"/>
  <rect x="50" y="50" width="700" height="400" fill="white" rx="10"/>
  <rect x="70" y="70" width="660" height="60" fill="#f7fafc" rx="5"/>
  <text x="90" y="105" font-family="Arial" font-size="24" font-weight="bold" fill="#2d3748">Visual Flow Builder</text>
  <rect x="100" y="150" width="120" height="80" fill="#38b2ac" rx="8"/>
  <text x="160" y="195" font-family="Arial" font-size="12" fill="white" text-anchor="middle">Welcome</text>
  <text x="160" y="210" font-family="Arial" font-size="12" fill="white" text-anchor="middle">Message</text>
  <line x1="220" y1="190" x2="260" y2="190" stroke="#4a5568" stroke-width="2" marker-end="url(#arrowhead)"/>
  <rect x="280" y="150" width="120" height="80" fill="#667eea" rx="8"/>
  <text x="340" y="195" font-family="Arial" font-size="12" fill="white" text-anchor="middle">User</text>
  <text x="340" y="210" font-family="Arial" font-size="12" fill="white" text-anchor="middle">Profile</text>
  <line x1="400" y1="190" x2="440" y2="190" stroke="#4a5568" stroke-width="2" marker-end="url(#arrowhead)"/>
  <rect x="460" y="150" width="120" height="80" fill="#48bb78" rx="8"/>
  <text x="520" y="195" font-family="Arial" font-size="12" fill="white" text-anchor="middle">First</text>
  <text x="520" y="210" font-family="Arial" font-size="12" fill="white" text-anchor="middle">Action</text>
  <rect x="100" y="280" width="120" height="80" fill="#ed8936" rx="8"/>
  <text x="160" y="325" font-family="Arial" font-size="12" fill="white" text-anchor="middle">A/B Test</text>
  <text x="160" y="340" font-family="Arial" font-size="12" fill="white" text-anchor="middle">Variant</text>
  <rect x="280" y="280" width="120" height="80" fill="#9f7aea" rx="8"/>
  <text x="340" y="325" font-family="Arial" font-size="12" fill="white" text-anchor="middle">Success</text>
  <text x="340" y="340" font-family="Arial" font-size="12" fill="white" text-anchor="middle">Metric</text>
  <defs>
    <marker id="arrowhead" markerWidth="10" markerHeight="7" refX="9" refY="3.5" orient="auto">
      <polygon points="0 0, 10 3.5, 0 7" fill="#4a5568"/>
    </marker>
  </defs>
</svg>